<svg width="132" height="23" viewBox="0 0 132 23" fill="none" xmlns="http://www.w3.org/2000/svg">
<path d="M17.224 17.1083C17.224 20.9104 14.5869 22.8115 9.31266 22.8115C5.90678 22.8115 3.5032 22.1036 2.10192 20.688C0.700639 19.2521 0 17.1892 0 14.4994H2.39385C2.39385 16.1173 2.65659 17.3813 3.18207 18.2914C3.72701 19.2015 4.49577 19.8284 5.48834 20.1722C6.48091 20.5161 7.75569 20.688 9.31266 20.688C11.1421 20.688 12.5142 20.425 13.4289 19.8992C14.3631 19.3532 14.8302 18.4633 14.8302 17.2297C14.8302 16.3398 14.5675 15.6117 14.042 15.0455C13.536 14.4792 12.9034 14.0343 12.1444 13.7107C11.3854 13.3871 10.3636 13.0332 9.07912 12.6489C8.82611 12.5882 8.44659 12.477 7.94058 12.3152C6.34468 11.8298 5.06017 11.3546 4.08706 10.8894C3.13341 10.4243 2.36466 9.80744 1.78079 9.03893C1.21639 8.27042 0.934186 7.28956 0.934186 6.09634C0.934186 4.39752 1.52778 3.09307 2.71498 2.18299C3.92163 1.27291 5.76081 0.817871 8.23251 0.817871C10.1398 0.817871 11.6968 1.17179 12.9034 1.87963C14.1296 2.58747 15.0151 3.49755 15.56 4.60987C16.105 5.72219 16.3774 6.9053 16.3774 8.15919H13.9836C13.9836 6.44015 13.4386 5.14581 12.3488 4.27618C11.2783 3.38632 9.90626 2.94139 8.23251 2.94139C4.96286 2.94139 3.32804 3.97282 3.32804 6.03567C3.32804 6.76373 3.51293 7.37045 3.88271 7.85583C4.27195 8.32098 4.81689 8.72546 5.51753 9.06927C6.23763 9.39285 7.23994 9.767 8.52444 10.1917L9.37105 10.4647C11.0837 11.0108 12.4558 11.5164 13.4873 11.9815C14.5188 12.4467 15.3946 13.0938 16.1147 13.923C16.8543 14.7522 17.224 15.814 17.224 17.1083Z" fill="white"/>
<path d="M24.6925 20.688L29.8013 20.3846V22.5081L24.2838 22.8115C22.9409 22.8924 22.2695 22.2048 22.2695 20.7486V9.58498H19.0874V7.43112H22.2695V3.54811L24.6925 2.78971V7.43112H29.2175V9.58498H24.6925V20.688Z" fill="white"/>
<path d="M32.5357 18.3218C32.5357 15.7331 34.1219 14.2668 37.2942 13.923L43.0745 13.3466C42.9966 11.9714 42.6074 10.94 41.9067 10.2524C41.2256 9.56476 40.2525 9.22095 38.9874 9.22095C37.8197 9.22095 36.8466 9.53442 36.0681 10.1614C35.3091 10.7681 34.9296 11.7287 34.9296 13.0433H32.5941C32.5941 11.9714 32.8471 10.9906 33.3531 10.1007C33.8591 9.19061 34.589 8.47266 35.5426 7.94684C36.5157 7.40079 37.664 7.12776 38.9874 7.12776C40.3108 7.12776 41.4591 7.42101 42.4322 8.00751C43.4248 8.57378 44.1741 9.37263 44.6801 10.4041C45.2056 11.4355 45.4683 12.6186 45.4683 13.9534V20.3846H47.5994V22.5081H45.0304C44.4855 22.5081 44.0573 22.3564 43.7459 22.0531C43.454 21.7497 43.308 21.3149 43.308 20.7486V19.9296L43.6875 18.3521H42.9869C42.6755 19.6666 42.0624 20.7385 41.1477 21.5677C40.2525 22.3969 38.9972 22.8115 37.3818 22.8115C35.5134 22.8115 34.2386 22.3463 33.5575 21.416C32.8763 20.4857 32.5357 19.4543 32.5357 18.3218ZM34.9296 18.0184C34.9296 18.8678 35.1728 19.5251 35.6594 19.9902C36.1654 20.4554 36.8368 20.688 37.6737 20.688C38.7441 20.688 39.6881 20.4554 40.5055 19.9902C41.3229 19.5049 41.9554 18.8476 42.403 18.0184C42.8507 17.169 43.0745 16.2286 43.0745 15.1971L37.7029 15.7735C36.7493 15.8746 36.0486 16.0971 35.601 16.4409C35.1534 16.7645 34.9296 17.2903 34.9296 18.0184Z" fill="white"/>
<path d="M50.3676 9.22095C50.3676 7.78504 51.039 7.09743 52.3819 7.1581L60.4392 7.43112V9.58498L52.7614 9.28162V22.5081H50.3676V9.22095Z" fill="white"/>
<path d="M65.6473 22.5081H63.2534V1.12122H76.7407V3.24474H65.6473V11.7692L75.3978 11.1624V13.3466L65.6473 13.9534V22.5081Z" fill="url(#paint0_linear_2_298)"/>
<path d="M78.1785 14.9544C78.1785 13.4983 78.4996 12.1736 79.1419 10.9804C79.7841 9.7872 80.6794 8.84679 81.8276 8.15917C82.9954 7.47156 84.3383 7.12775 85.8563 7.12775C87.3549 7.12775 88.6783 7.47156 89.8266 8.15917C90.9944 8.84679 91.8993 9.7872 92.5416 10.9804C93.1839 12.1736 93.505 13.4983 93.505 14.9544C93.505 16.4308 93.1839 17.7656 92.5416 18.9588C91.9188 20.152 91.0235 21.0924 89.8558 21.78C88.6881 22.4677 87.3549 22.8115 85.8563 22.8115C84.3383 22.8115 82.9954 22.4677 81.8276 21.78C80.6794 21.0924 79.7841 20.152 79.1419 18.9588C78.4996 17.7656 78.1785 16.4308 78.1785 14.9544ZM80.5723 14.9544C80.5723 16.0263 80.7767 16.9971 81.1854 17.8667C81.5941 18.7363 82.1974 19.4239 82.9954 19.9295C83.7933 20.4351 84.747 20.6879 85.8563 20.6879C86.9462 20.6879 87.8804 20.4351 88.6589 19.9295C89.4568 19.4239 90.0602 18.7363 90.4689 17.8667C90.8776 16.9971 91.0819 16.0263 91.0819 14.9544C91.0819 13.9028 90.8776 12.9523 90.4689 12.1029C90.0602 11.2332 89.4568 10.5456 88.6589 10.04C87.8804 9.5344 86.9462 9.2816 85.8563 9.2816C84.202 9.2816 82.9078 9.81754 81.9736 10.8894C81.0394 11.9613 80.5723 13.3163 80.5723 14.9544Z" fill="url(#paint1_linear_2_298)"/>
<path d="M96.8086 9.22093C96.8086 7.78503 97.4801 7.09741 98.8229 7.15808L106.88 7.43111V9.58496L99.2025 9.2816V22.5081H96.8086V9.22093Z" fill="url(#paint2_linear_2_298)"/>
<path d="M127.504 7.12775C128.983 7.12775 130.102 7.6738 130.861 8.76589C131.62 9.83776 132 11.2534 132 13.0129V22.5081H129.606V13.6197C129.606 12.1029 129.392 11.0006 128.964 10.313C128.535 9.62541 127.757 9.2816 126.628 9.2816C125.188 9.2816 124.059 9.88833 123.242 11.1018C122.424 12.295 122.016 13.8927 122.016 15.8949V22.5081H119.622V13.6197C119.622 12.1029 119.408 11.0006 118.98 10.313C118.551 9.62541 117.773 9.2816 116.644 9.2816C115.204 9.2816 114.075 9.88833 113.258 11.1018C112.44 12.295 112.032 13.8927 112.032 15.8949V22.5081H109.638V7.43111H112.032V9.97933L111.652 11.7085H112.323C112.985 8.65466 114.717 7.12775 117.52 7.12775C118.804 7.12775 119.807 7.54234 120.527 8.37152C121.266 9.18048 121.724 10.2928 121.899 11.7085H122.337C122.998 8.65466 124.721 7.12775 127.504 7.12775Z" fill="url(#paint3_linear_2_298)"/>
<defs>
<linearGradient id="paint0_linear_2_298" x1="97.6266" y1="1.12122" x2="97.6266" y2="22.8115" gradientUnits="userSpaceOnUse">
<stop stop-color="#DFC11E"/>
<stop offset="1" stop-color="#7D6119"/>
</linearGradient>
<linearGradient id="paint1_linear_2_298" x1="97.6266" y1="1.12122" x2="97.6266" y2="22.8115" gradientUnits="userSpaceOnUse">
<stop stop-color="#DFC11E"/>
<stop offset="1" stop-color="#7D6119"/>
</linearGradient>
<linearGradient id="paint2_linear_2_298" x1="97.6266" y1="1.12122" x2="97.6266" y2="22.8115" gradientUnits="userSpaceOnUse">
<stop stop-color="#DFC11E"/>
<stop offset="1" stop-color="#7D6119"/>
</linearGradient>
<linearGradient id="paint3_linear_2_298" x1="97.6266" y1="1.12122" x2="97.6266" y2="22.8115" gradientUnits="userSpaceOnUse">
<stop stop-color="#DFC11E"/>
<stop offset="1" stop-color="#7D6119"/>
</linearGradient>
</defs>
</svg>
