<svg width="28" height="29" viewBox="0 0 28 29" fill="none" xmlns="http://www.w3.org/2000/svg">
<path d="M23.278 9.42221C23.2923 9.62791 23.2923 9.83361 23.2923 10.0412C23.2923 16.3668 18.4768 23.662 9.67143 23.662V23.6582C7.07031 23.662 4.52322 22.917 2.3335 21.5121C2.71172 21.5576 3.09184 21.5804 3.47291 21.5813C5.62851 21.5832 7.72249 20.8599 9.41834 19.5281C7.36986 19.4892 5.57353 18.1536 4.946 16.2037C5.66358 16.3421 6.40297 16.3137 7.10728 16.1212C4.87395 15.67 3.26721 13.7078 3.26721 11.429C3.26721 11.4081 3.26721 11.3882 3.26721 11.3683C3.93266 11.739 4.67773 11.9447 5.43987 11.9674C3.33641 10.5616 2.68802 7.76333 3.95825 5.5755C6.38875 8.56623 9.97477 10.3844 13.8243 10.5768C13.4385 8.91412 13.9656 7.17182 15.2092 6.00302C17.1373 4.19058 20.1698 4.28347 21.9822 6.21062C23.0543 5.99923 24.0819 5.60584 25.0222 5.04845C24.6649 6.15658 23.9169 7.09788 22.9178 7.69603C23.8667 7.58417 24.7938 7.33012 25.6668 6.94242C25.0241 7.90552 24.2146 8.74444 23.278 9.42221Z" fill="white"/>
</svg>
